# xmcd CD database file
#
# Track frame offsets:
#	150
#	24475
#	43962
#	66315
#	87582
#	103737
#	124487
#	142095
#	160252
#	183560
#	204562
#	223757
#	240590
#	259775
#	274812
#	298130
#
# Disc length: 4201 seconds
#
# Revision: 0
# Processed by: cddbd v1.5.2PL0 Copyright (c) Steve Scherf et al.
# Submitted via: CDex 1.70beta2
#
DISCID=0a106710
DTITLE=Tim Mcgraw - Tim Mcgraw And The Dancehall Doctors
DYEAR=2003
DGENRE=Country
TTITLE0=Comfort Me
TTITLE1=Tickin' Away
TTITLE2=Home
TTITLE3=Red Ragtop
TTITLE4=That's Why God Made Mexico
TTITLE5=Watch the Wind Blow By
TTITLE6=Illegal
TTITLE7=Sleep Tonight
TTITLE8=I Know How to Love You Well
TTITLE9=Sing Me Home
TTITLE10=She's My Kind of Rain
TTITLE11=Who Are They
TTITLE12=Real Good Man
TTITLE13=All We Ever Find
TTITLE14=Tiny Dancer
TTITLE15=It's Your Love
EXTD=YEAR: 2003
EXTT0=
EXTT1=
EXTT2=
EXTT3=
EXTT4=
EXTT5=
EXTT6=
EXTT7=
EXTT8=
EXTT9=
EXTT10=
EXTT11=
EXTT12=
EXTT13=
EXTT14=
EXTT15=
PLAYORDER=
